<?xml version="1.0" encoding="utf-8"?>
<!-- Generator: Adobe Illustrator 23.1.1, SVG Export Plug-In . SVG Version: 6.00 Build 0)  -->
<svg version="1.1" id="レイヤー_1" xmlns="http://www.w3.org/2000/svg" xmlns:xlink="http://www.w3.org/1999/xlink" x="0px"
	 y="0px" viewBox="0 0 2069.29 2069.29" style="enable-background:new 0 0 2069.29 2069.29;" xml:space="preserve">
<style type="text/css">
	.st0{fill:#FFFFFF;stroke:#000000;stroke-miterlimit:10;}
	.st1{fill:#1E071E;stroke:#696969;stroke-miterlimit:10;}
	.st2{fill:none;stroke:#696969;stroke-miterlimit:10;}
	.st3{fill:#F4F4F4;stroke:#3A0404;stroke-miterlimit:10;}
	.st4{fill:#FFFFFF;stroke:#3A0404;stroke-miterlimit:10;}
</style>
<g>
	<path class="st0" d="M83.4,738.77"/>
	<path class="st0" d="M62.04,510.91"/>
	<path class="st1" d="M318.89,1126.15l213.27,209.94c1.01,0.99,2.49,1.32,3.83,0.85l1076.14-379.72c0.52-0.18,0.99-0.48,1.39-0.87
		l165.45-165.45c1.58-1.58,1.41-4.2-0.37-5.56l-239.51-182.56c-0.82-0.63-1.87-0.88-2.89-0.7l-325.68,57.67
		c-0.37,0.07-0.72,0.19-1.05,0.36l-889.68,460.12C317.55,1121.38,317.09,1124.38,318.89,1126.15z"/>
	<path class="st1" d="M342.46,1336.82l-26.28-206.95c-0.3-2.4,2.59-3.84,4.32-2.14l212.64,209.32c0.43,0.42,0.7,0.98,0.75,1.58
		l18.07,197.07c0.22,2.36-2.62,3.71-4.32,2.06l-204.43-199.44C342.8,1337.93,342.53,1337.4,342.46,1336.82z"/>
	<path class="st1" d="M1573.91,1163.29l168.41-166.71c0.24-0.24,0.4-0.54,0.47-0.88l38.17-202.49c0.3-1.61-1.66-2.65-2.82-1.49
		l-164.95,164.95c-0.18,0.18-0.39,0.31-0.63,0.39L535.03,1337.27c-0.72,0.25-1.18,0.97-1.11,1.73l18.46,201.43
		c0.1,1.09,1.21,1.8,2.24,1.41l1018.68-378.17C1573.54,1163.59,1573.74,1163.46,1573.91,1163.29z"/>
	<line class="st2" x1="1573.65" y1="1163.55" x2="1612.92" y2="956.94"/>
</g>
<g id="十字架">
	<path class="st3" d="M1597.33,764.02l-63.71-59.85c-0.83-0.78-2.04-1-3.09-0.57l-117.56,48.38c-0.95,0.39-2.04,0.25-2.86-0.37
		l-89.86-68.39c-0.84-0.64-1.97-0.77-2.93-0.34l-89.51,39.89c-1.95,0.87-2.32,3.48-0.69,4.86l67.54,57.29
		c1.63,1.38,1.25,3.99-0.7,4.86l-230.04,101.94c-1.89,0.84-2.32,3.33-0.82,4.75l65.9,62.67c0.84,0.8,2.08,1.02,3.15,0.56
		l255.69-111.14c0.93-0.4,2-0.29,2.82,0.29l88.39,62.27c0.88,0.62,2.03,0.7,2.99,0.21l83.59-42.77c1.86-0.95,2.13-3.49,0.53-4.81
		l-63.29-52.25c-1.69-1.4-1.28-4.09,0.75-4.92l92.82-37.75C1598.4,768.02,1598.87,765.46,1597.33,764.02z"/>
	<path class="st4" d="M1658.66,261.65"/>
</g>
</svg>
