<?xml version="1.0" encoding="utf-8"?>
<!-- Generator: Adobe Illustrator 23.1.1, SVG Export Plug-In . SVG Version: 6.00 Build 0)  -->
<svg version="1.1" id="枠線" xmlns="http://www.w3.org/2000/svg" xmlns:xlink="http://www.w3.org/1999/xlink" x="0px" y="0px"
	 viewBox="0 0 2069.29 2069.29" style="enable-background:new 0 0 2069.29 2069.29;" xml:space="preserve">
<style type="text/css">
	.st0{fill:#471047;stroke:#471047;stroke-width:25;stroke-miterlimit:10;}
	.st1{fill:#FFFFFF;stroke:#5000E7;stroke-miterlimit:10;}
	.st2{fill:#212026;stroke:#471047;stroke-width:6;stroke-miterlimit:10;}
	.st3{fill:#212026;}
	.st4{fill:#FFFFFF;}
	.st5{fill:#FFFFFF;stroke:#3A0404;stroke-miterlimit:10;}
</style>
<path class="st0" d="M0,271.29V1798c0,149.83,121.46,271.29,271.29,271.29H1798c149.83,0,271.29-121.46,271.29-271.29V271.29
	C2069.29,121.46,1947.83,0,1798,0H271.29C121.46,0,0,121.46,0,271.29z"/>
<g id="bucket">
	<g>
		<path class="st1" d="M-27.5,875.07"/>
		<path class="st1" d="M-73.33,631.12"/>
		<path class="st2" d="M265.54,1269.91l251.31,205.43c1.19,0.97,2.82,1.18,4.22,0.54l1124.3-517.62c0.54-0.25,1.02-0.62,1.41-1.08
			l162.16-195.22c1.55-1.86,1.1-4.68-0.96-5.97l-276.91-173.23c-0.95-0.6-2.11-0.76-3.19-0.47l-345.97,94.82
			c-0.39,0.11-0.76,0.28-1.1,0.49l-914.88,585.83C263.62,1264.9,263.42,1268.18,265.54,1269.91z"/>
		<path class="st3" d="M312.05,1495.08l-49.06-220.88c-0.56-2.56,2.41-4.41,4.45-2.74L518,1476.28c0.51,0.41,0.85,0.99,0.97,1.63
			l39.21,211.03c0.47,2.53-2.46,4.27-4.46,2.66l-240.71-194.97C312.52,1496.25,312.18,1495.7,312.05,1495.08z"/>
		<path class="st3" d="M1624.68,1184.63l165.23-196.87c0.24-0.28,0.38-0.62,0.42-1l20.99-222.5c0.16-1.77-2.06-2.7-3.19-1.33
			l-161.67,194.63c-0.18,0.21-0.39,0.37-0.64,0.48L520.07,1476.33c-0.75,0.34-1.18,1.17-1.03,1.98l40.06,215.7
			c0.22,1.17,1.49,1.82,2.56,1.3l1062.39-510.21C1624.31,1184.99,1624.51,1184.83,1624.68,1184.63z"/>
	</g>
	<g id="十字架">
		<path class="st4" d="M1610.08,751.07l-74.79-58.27c-0.97-0.76-2.3-0.88-3.39-0.31l-122.13,64c-0.99,0.52-2.18,0.47-3.13-0.11
			l-103.88-64.88c-0.97-0.61-2.2-0.63-3.2-0.07l-92.69,52.02c-2.02,1.13-2.16,3.99-0.26,5.32l78.67,55.13
			c1.9,1.33,1.75,4.18-0.27,5.32l-238.26,133.08c-1.96,1.1-2.17,3.83-0.41,5.21l77.43,61.1c0.99,0.78,2.35,0.89,3.46,0.29
			l265.04-145.58c0.96-0.52,2.13-0.51,3.07,0.03l101.68,58.42c1.01,0.58,2.26,0.55,3.25-0.07l86-54.54
			c1.91-1.21,1.95-3.98,0.09-5.25l-73.57-50.11c-1.97-1.34-1.79-4.29,0.32-5.39l96.47-50.04
			C1611.63,755.29,1611.89,752.48,1610.08,751.07z"/>
		<path class="st5" d="M1626.12,202.39"/>
	</g>
</g>
</svg>
